<?xml version="1.0" encoding="utf-8"?>
<!-- Generator: Adobe Illustrator 20.1.0, SVG Export Plug-In . SVG Version: 6.00 Build 0)  -->
<svg version="1.1" id="Ebene_1" xmlns="http://www.w3.org/2000/svg" xmlns:xlink="http://www.w3.org/1999/xlink" x="0px" y="0px"
	 viewBox="0 0 100 100" style="enable-background:new 0 0 100 100;" xml:space="preserve">
<g id="_x31_6x16_2_">
	<path style="fill:#E1001A;" d="M98.407,86.317L53.838,9.242c-0.797-1.362-2.269-2.206-3.829-2.206c-1.58,0-3.05,0.844-3.84,2.212
		L1.593,86.315c-0.79,1.368-0.79,3.068,0,4.434c0.797,1.368,2.26,2.215,3.838,2.215h89.14c1.578,0,3.041-0.844,3.838-2.222
		C99.198,89.381,99.198,87.686,98.407,86.317z"/>
	<path style="fill:#FFFFFF;" d="M90.332,86.491c-0.324,0.558-0.921,0.907-1.569,0.907H11.246c-0.648,0-1.247-0.349-1.571-0.907
		c-0.324-0.563-0.324-1.251,0-1.812l38.763-67.017c0.324-0.56,0.923-0.905,1.571-0.905c0.646,0,1.245,0.344,1.56,0.905
		l38.763,67.017C90.656,85.239,90.656,85.928,90.332,86.491z"/>
	<g>
		<path style="fill:#1A171B;" d="M83.055,81.503L72.321,67.609c-0.266-0.252-0.522-0.515-0.788-0.772
			c-2.093-1.839-5.242-1.573-7.07,0.52l-4.186,4.711c-0.275,0.518-1.065,1.056-1.846,1.308l-1.038,0.266
			c-0.275,0.268-0.799,0.538-1.056,0.79l-1.837,2.361l-3.921,4.454c-0.257,0.257-0.257,0.524-0.257,0.776
			c0,0.533,0.515,1.053,1.038,1.053h3.14h27.772c0,0,0.266,0,0.524-0.268C83.321,82.556,83.321,81.771,83.055,81.503z"/>
		<path style="fill:#1A171B;" d="M54.502,45.882c2.093-0.261,3.673-1.832,3.673-3.93c0-2.095-1.58-3.928-3.673-3.928
			c-2.084,0-3.921,1.832-3.921,3.928C50.581,44.05,52.417,45.882,54.502,45.882z"/>
		<path style="fill:#1A171B;" d="M54.502,69.452l4.195,3.403c0.515-0.27,0.79-0.52,1.305-1.042l-5.501-4.72l-4.177-3.405
			l1.038-15.449c0,0,0,0,0-0.261c0-2.095-1.828-3.928-4.195-3.928h-7.061h-1.852c-1.04,0-1.828,0.527-2.343,1.308l-2.899,5.496
			c-1.038,1.837-0.25,3.937,1.321,4.974l1.038-2.093l2.633,2.093l0.781-1.562l-2.359-2.107l2.359-4.711h1.321h2.609l-2.609,5.242
			l-2.892,5.769l2.892,1.562l3.399,1.573l3.912-7.074l-0.515,6.284l-1.578-1.305l-1.04,1.576l2.368,1.825v0.788
			c0,2.093,1.571,3.669,3.399,3.921l0.275-1.828L54.502,69.452z"/>
		<path style="fill:#1A171B;" d="M47.166,68.935l-4.186-6.302l-2.874-1.558l-3.414-1.83L26.997,77.58
			c-1.04,1.83-0.275,4.443,1.834,5.496l9.953-19.123l1.321,1.828l3.124,4.724l0.275,8.65c0,2.091,2.084,3.921,4.186,3.921
			l-0.524-13.624C47.166,69.2,47.166,69.2,47.166,68.935z"/>
	</g>
</g>
</svg>
